<?xml version="1.0" standalone="no"?>
<!DOCTYPE svg PUBLIC "-//W3C//DTD SVG 1.1//EN" "http://www.w3.org/Graphics/SVG/1.1/DTD/svg11.dtd" >
<svg xmlns="http://www.w3.org/2000/svg" xmlns:xlink="http://www.w3.org/1999/xlink" version="1.1" viewBox="-10 0 1034 1024">
   <path fill="currentColor"
d="M499 861q-64 0 -115 -31q-37 -71 -33.5 -159.5t-6.5 -170.5l7 -31l-14 -6q-50 17 -101 37t-108 24l-13 -10v-11q57 -20 116 -37t116 -34q7 -44 12 -86.5t2 -90.5l20 -7l17 24l-4 140l21 6q90 -27 181 -54t176 -65q20 14 16 34q-94 38 -191.5 65t-198.5 54l-7 38l7 24
q-17 23 -10 57l6 86l-3 61q0 44 24 81q33 17 77 14l34 -7l84 7q44 -7 89.5 -10.5t85.5 -23.5l3 -17q-23 -44 -37 -92q4 -13 21 -10q50 65 67 139q-64 34 -136.5 42.5t-146.5 8.5l-20 -3q-17 14 -37 14z" />
</svg>
