<?xml version="1.0" standalone="no"?>
<!DOCTYPE svg PUBLIC "-//W3C//DTD SVG 1.1//EN" "http://www.w3.org/Graphics/SVG/1.1/DTD/svg11.dtd" >
<svg xmlns="http://www.w3.org/2000/svg" xmlns:xlink="http://www.w3.org/1999/xlink" version="1.1" viewBox="-24 0 1048 1024">
   <path fill="currentColor"
d="M715 855q-18 -15 -18 -37q2 -195 -3 -389q-4 -58 -18 -102q-33 77 -69.5 154t-90.5 147q-55 44 -106 91h-21l-4 -18l73 -81l47 -55q47 -59 76 -125t51 -132l-15 -3l-105 33l-14 -11v-26q83 -15 159 -40l26 -26l3 -41l-3 -88l22 -11q18 70 21 147l15 4l120 -33
q18 11 14 29q-76 19 -149 41l-3 14q32 52 72 101.5t80 96.5q62 44 106 96l-22 11q-69 -33 -127 -92l-18 -40q-40 -41 -77 -88h-11v33q11 51 8 106l-4 92q4 59 9.5 115.5t1.5 119.5zM283 829l-21 -22l-15 -135l4 -15q3 -78 -8 -154l4 -19l-7 -47h-11q-26 80 -64 155.5
t-103 141.5l-58 44l-18 -15v-18l43 -33q69 -77 111 -167t63 -185l-25 -4q-62 15 -120 44l-18 -15v-14q44 -19 89 -31.5t89 -31.5q22 -29 25 -66l-3 -51l14 -30l18 -3l8 29l-4 29q0 45 15 78q80 -11 149 -48q18 11 14 33q-83 22 -167 48l-4 11q29 44 67.5 77t74.5 66l7 22
l-25 18l-127 -117l-4 22l15 88l-8 18q2 144 22 286q-3 15 -22 11z" />
</svg>
