<?xml version="1.0" standalone="no"?>
<!DOCTYPE svg PUBLIC "-//W3C//DTD SVG 1.1//EN" "http://www.w3.org/Graphics/SVG/1.1/DTD/svg11.dtd" >
<svg xmlns="http://www.w3.org/2000/svg" xmlns:xlink="http://www.w3.org/1999/xlink" version="1.1" viewBox="-10 0 1034 1024">
   <path fill="currentColor"
d="M859 591l-64 -58q-100 6 -200 13l-23 -3q-38 0 -68 14q-16.9229 -10.9502 -41 -7l-128 21l-34 -4q-30 10 -64 7q-40 3 -64 -21l-27 -27l-7 -31l24 -4l27 14l17 17l94 7q64 -13 129 -24l20 7l95 -10l20 7l47 -11q106 -12 212 -25q30 54 59 108q-7 14 -24 10z" />
</svg>
